# xmcd CD database file
# Copyright (C) 2007 Ti Kan
# 
# Track frame offsets:
#     150
#     26050
#     49013
#     71281
#     101039
#     127090
#     157754
#     178995
#     200100
#     211509
#     237003
#     246768
#     271313
#     292421
#     303948
#     320532
# 
# Disc length: 4325 seconds
# 
# Revision: 1
# Processed by: cddbd v1.5.2PL0 Copyright (c) Steve Scherf et al.
# Submitted via: DiscPlay 4.0.4
# 
DISCID=ea10e310
DTITLE=Hugh Gaskins - Motel Angels
DYEAR=1900
DGENRE=
TTITLE0=Little Bit of Heaven
TTITLE1=Hughmanity Blues
TTITLE2=Motel La Diabla
TTITLE3=Desert Rose
TTITLE4=Three on the Hill
TTITLE5=Miss Opal
TTITLE6=I Ain't Mad
TTITLE7=Blue Rain
TTITLE8=Long Gone Momma
TTITLE9=Evangelina Las Lluvias
TTITLE10=Porn Angel
TTITLE11=Driftin' Free
TTITLE12=I Can See 'Cross the River
TTITLE13=My Baby Says In Winter
TTITLE14=Let Me In
TTITLE15=Michael
EXTD=Submitted by ecto@cox.net
EXTT0=
EXTT1=
EXTT2=
EXTT3=
EXTT4=
EXTT5=
EXTT6=
EXTT7=
EXTT8=
EXTT9=
EXTT10=
EXTT11=
EXTT12=
EXTT13=
EXTT14=
EXTT15=
PLAYORDER=
